<?xml version="1.0" encoding="utf-8"?>
<!-- Generator: Adobe Illustrator 27.5.0, SVG Export Plug-In . SVG Version: 6.00 Build 0)  -->
<svg version="1.1" xmlns="http://www.w3.org/2000/svg" xmlns:xlink="http://www.w3.org/1999/xlink" x="0px" y="0px"
	 viewBox="0 0 3710 3710" style="enable-background:new 0 0 3710 3710;" xml:space="preserve">

<g id="Illustration">
	<g id="Drop_shipper_receives_order">
		<path style="fill:#F4F7FA;" d="M578.148,655.6c-21.423,148.352,449.305,328.175,417.611,401.167
			c-24.188,55.703-275.264-78.748-425.386,21.808c-187.553,125.628-153.301,700.48,120.91,1057.647
			c82.464,107.411,151.368,149.203,181.887,270.682c65.529,260.843-164.775,416.01-120.949,545.02
			c104.077,306.37,1630.463,483.774,2225.28-338.763c250.739-346.733,255.396-760.22,255.283-860.345
			c-0.188-166.397-0.643-567.571-279.505-871.012c-205.199-223.284-456.221-279.48-777.41-346.672
			C1437.883,380.744,605.674,464.981,578.148,655.6z"/>
		<g>
			<g>
				<path style="fill:#97A6B7;" d="M2185.079,2758.989c-38.938-12.915-68.041-45.962-76.247-86.579l-56.673-280.492l-484.797,17.215
					l-59.664,292.209c-8.356,40.924,25.094,81.98,63.617,97.053l202.828,79.36c37.725,14.76,78.276,20.639,118.58,17.191
					l428.649-36.67c12.531-1.072,22.582-10.922,24.04-23.558c1.459-12.637,10.238-26.826-1.71-30.789L2185.079,2758.989z"/>
				<linearGradient id="SVGID_1_" gradientUnits="userSpaceOnUse" x1="1881.8237" y1="3284.8396" x2="1942.2739" y2="2700.4836">
					<stop  offset="0" style="stop-color:#444B8C"/>
					<stop  offset="0.9964" style="stop-color:#26264F"/>
				</linearGradient>
				<path style="fill:url(#SVGID_1_);" d="M2189.876,2741.93c-38.898-12.753-67.972-45.385-76.171-85.491l-56.616-276.965
					l-472.979,17.017l-59.604,288.536c-8.348,40.409,13.739,80.932,52.224,95.815l202.624,78.362
					c37.687,14.575,78.197,20.38,118.46,16.975l428.218-36.209c12.518-1.058,22.559-10.785,24.016-23.262
					c1.457-12.478-6.074-24.256-18.011-28.169L2189.876,2741.93z"/>
			</g>
			<g>
				<g>
					
						<linearGradient id="SVGID_00000034073072402574638710000002422451984029650850_" gradientUnits="userSpaceOnUse" x1="1462.309" y1="1654.3776" x2="824.2173" y2="1728.2614">
						<stop  offset="0" style="stop-color:#444B8C"/>
						<stop  offset="0.3946" style="stop-color:#383C74"/>
						<stop  offset="0.9964" style="stop-color:#26264F"/>
					</linearGradient>
					<path style="fill:url(#SVGID_00000034073072402574638710000002422451984029650850_);" d="M576.747,2578.348
						c-52.573,3.134-95.583-30.972-95.583-76.044v-1624.5c0-45.072,43.01-79.878,95.583-77.6L3008.03,905.548
						c38.597,1.672,69.851,34.214,69.851,72.547v1381.626c0,38.333-31.254,71.384-69.851,73.685L576.747,2578.348z"/>
					
						<linearGradient id="SVGID_00000067216707039234005420000000749938830423955329_" gradientUnits="userSpaceOnUse" x1="503.0148" y1="1689.3224" x2="3099.731" y2="1689.3224">
						<stop  offset="0" style="stop-color:#444B8C"/>
						<stop  offset="0.9964" style="stop-color:#26264F"/>
					</linearGradient>
					<path style="fill:url(#SVGID_00000067216707039234005420000000749938830423955329_);" d="M598.597,2578.348
						c-52.573,3.134-95.582-30.972-95.582-76.044v-1624.5c0-45.072,43.009-79.878,95.582-77.6L3029.88,905.548
						c38.598,1.672,69.851,34.214,69.851,72.547v1381.626c0,38.333-31.253,71.384-69.851,73.685L598.597,2578.348z"/>
					<path style="opacity:0.3;fill:#D8DEE8;" d="M3029.881,938.064L598.598,838.045c-28.106-1.156-50.957,17.415-50.957,41.482
						V2142.96v356.892c0,24.068,22.851,42.266,50.957,40.652l2431.283-139.615c20.688-1.188,37.417-18.821,37.417-39.389v-315.835
						V976.843C3067.297,956.276,3050.569,938.915,3029.881,938.064z"/>
					
						<linearGradient id="SVGID_00000061452255490383289980000006831491223309491349_" gradientUnits="userSpaceOnUse" x1="2520.325" y1="534.6691" x2="-1189.2944" y2="5974.6235">
						<stop  offset="0" style="stop-color:#FFC444"/>
						<stop  offset="0.9964" style="stop-color:#F36F56"/>
					</linearGradient>
					<path style="fill:url(#SVGID_00000061452255490383289980000006831491223309491349_);" d="M598.597,2402.5
						c-10.942,0.541-19.853-6.637-19.853-15.997V880.728c0-9.361,8.912-16.626,19.853-16.192l2431.283,96.29
						c8.069,0.32,14.628,7.111,14.628,15.137v1291.067c0,8.026-6.56,14.882-14.628,15.281L598.597,2402.5z"/>
				</g>
				<path style="opacity:0.6;fill:#FFFFFF;" d="M2776.064,2332.854c-204.542-126.526-61.676-486.271-291.383-667.021
					c-231.587-182.231-557.459,41.274-719.681-147.447c-120.789-140.519,20.546-310.19-94.787-442.341
					c-180.868-207.241-643.875,77.784-856.596-126.383c-30.202-28.988-60.68-72.965-78.026-143.523l-136.993-5.936
					c-52.573-2.278-95.582,32.528-95.582,77.6v1624.5c0,45.072,43.009,79.178,95.582,76.044l2431.283-144.941
					c38.598-2.301,69.851-35.352,69.851-73.685v-24.564C2938.294,2389.938,2839.603,2372.157,2776.064,2332.854z"/>
			</g>
			<g>
				<g>
					
						<linearGradient id="SVGID_00000057859630578507545120000012243483392619716746_" gradientUnits="userSpaceOnUse" x1="3711.4109" y1="2300.4329" x2="4348.6519" y2="3974.8376" gradientTransform="matrix(-0.3809 0.9246 0.9246 0.3809 -180.1301 -2865.9626)">
						<stop  offset="0" style="stop-color:#AA80F9"/>
						<stop  offset="0.9964" style="stop-color:#6165D7"/>
					</linearGradient>
					<path style="fill:url(#SVGID_00000057859630578507545120000012243483392619716746_);" d="M1608.972,2287.656
						c47.185-21.116,93.272-44.688,138.384-69.998c-30.17-34.719-74.783-69.108-134.583-60.385
						c-77.769,11.346-120.885-74.647-152.044-179.037c-31.157-104.389-204.987-93.976-266.375-105.136
						c-87.643-15.929-121.267-29.179-186.859-206.009c-63.063-255.838-204.308-396.021-315.017-353.646
						c-112.173,42.936-123.752,171.764-64.916,272.371c29.269,50.053-14.012,81.048-16.346,136.486
						c-0.945,22.46,4.749,38.818,10.706,54.582c34.753,91.946,168.809,66.851,224.467,151.574
						c49.288,75.03-26.539,139.321,22.277,205.714c44.221,60.143,117.909,22.982,299.127,96.611
						c17.12,6.956,35.671,27.559,84.053,38.722c56.945,13.138,151.426,25.013,203.933,64.284
						C1506.407,2316.336,1557.165,2297.973,1608.972,2287.656z"/>
					<g>
						<g style="opacity:0.5;">
							<path style="fill:#FCFDFE;" d="M1729.719,2364.216l-1.981,4.057c-22.504-10.725-45.054-21.841-67.023-33.037
								c-162.658-82.91-310.983-179.167-440.859-286.102c-110.046-90.61-208.417-190.135-292.379-295.811
								c-67.522-84.984-126.134-174.389-174.208-265.733c-33.793-64.214-62.072-128.715-84.044-191.712
								c-3.831-10.978-7.143-22.468-10.347-33.581c-4.268-14.805-8.681-30.116-14.357-44.329l3.955-1.927
								c5.754,14.408,10.197,29.821,14.495,44.727c3.187,11.058,6.484,22.491,10.275,33.357
								c21.902,62.8,50.096,127.109,83.795,191.141c47.953,91.118,106.428,180.31,173.793,265.099
								c83.789,105.458,181.964,204.784,291.798,295.219c129.656,106.755,277.746,202.858,440.153,285.638
								C1684.725,2342.405,1707.243,2353.505,1729.719,2364.216z"/>
							<path style="fill:#FCFDFE;" d="M1038.364,1874.163l-3.051,3.304c-127.846-127.384-438.473-151.539-441.596-151.767
								l0.574-4.43C597.43,1721.5,909.495,1745.76,1038.364,1874.163z"/>
							<path style="fill:#FCFDFE;" d="M1428.126,2195.748l-2.684,3.625c-97.301-75.3-105.046-324.552-105.114-327.061l4.265-0.413
								C1324.659,1874.388,1332.345,2121.626,1428.126,2195.748z"/>
							<path style="fill:#FCFDFE;" d="M1487.202,2233.252l-2.058,4.02c-71.618-36.091-190.356-44.124-334.336-22.618
								c-7.24,1.081-7.24,1.081-7.955,0.734l2.011-4.044l-1.005,2.022l0.227-2.21c0.486-0.014,3.219-0.422,6.389-0.897
								C1295.276,2188.632,1414.861,2196.796,1487.202,2233.252z"/>
							<path style="fill:#FCFDFE;" d="M1688.954,2344.018l-3.039,3.313c-63.154-62.385-47.81-201.259-47.648-202.652l4.234,0.245
								C1642.34,2146.3,1627.247,2283.062,1688.954,2344.018z"/>
							<path style="fill:#FCFDFE;" d="M786.234,1538.521l-3.213,3.13c-67.021-75.215-155.233-136.883-184.22-157.147
								c-7.017-4.906-9.481-6.641-10.228-7.408l3.094-3.259c0.578,0.577,4.59,3.381,9.669,6.931
								C630.415,1401.098,718.907,1462.963,786.234,1538.521z"/>
							<path style="fill:#FCFDFE;" d="M876.737,1678.817l-3.897,2.065c-38.855-88.076,30.289-277.916,33.251-285.955l3.969,1.351
								C909.343,1398.228,838.608,1592.386,876.737,1678.817z"/>
						</g>
					</g>
				</g>
				<g>
					<path style="fill:#FE8794;" d="M1863.125,2022.748c-9.084,12.7-70.768-41.328-182.227-50.269
						c-27.846-2.233-178.881-24.95-236.963,74.115c-11.275,19.23-22.552,38.46-33.826,57.689
						c-53.144-6.895-101.955-23.24-86.724-91.83c23.653-106.518-130.489-189.8-199.176-193.044
						c-85.013-4.016-282.554-17.528-248.5-182.648c28.349-137.462,73.914-221.785-67.275-306.089
						c-141.191-84.306-187.003-215.197-103.444-349.388c87.934-141.215-32.507-357.447,93.966-444.747
						c220.377-152.112,439.486,204.125,395.659,506.057c-43.826,301.931,121.643,201.93,244.553,257.279
						c11.118,5.785,27.91,15.61,45.528,30.969c108.463,94.562,60.164,234.993,111.54,381.792
						C1666.299,1912.839,1878.43,2001.354,1863.125,2022.748z"/>
					<g>
						<defs>
							<path id="SVGID_00000143578653080352377480000016909366757933679777_" d="M1625.035,1794.872l-174.115,316.817
								c-52.836-4.266-144.548-22.618-127.535-99.234c23.652-106.519-130.49-189.801-199.177-193.045
								c-85.013-4.016-282.554-17.528-248.501-182.648c28.349-137.461,73.915-221.783-67.276-306.088
								c-141.19-84.306-187.001-215.198-103.442-349.388c87.933-141.214-32.508-357.447,93.967-444.746
								c220.376-152.114,439.484,204.124,395.658,506.055s121.642,201.932,244.554,257.28
								c167.8,75.563,8.289,288.439,39.283,382.812C1502.748,1756.669,1576.71,1783.872,1625.035,1794.872z"/>
						</defs>
						<clipPath id="SVGID_00000145736821925604169850000001445079746375171208_">
							<use xlink:href="#SVGID_00000143578653080352377480000016909366757933679777_"  style="overflow:visible;"/>
						</clipPath>
						<g style="opacity:0.5;clip-path:url(#SVGID_00000145736821925604169850000001445079746375171208_);">
							<path style="fill:#FCFDFE;" d="M1495.611,1918.798l-4.964,6.066c-415.522-346.453-652.867-906.377-619.411-1461.263
								l7.532,0.054C845.454,1016.204,1081.815,1573.784,1495.611,1918.798z"/>
							<path style="fill:#FCFDFE;" d="M1286.017,1709.205l-3.743,6.882c-188.249-99.068-427.083-7.052-429.474-6.11l-2.378-7.161
								C852.843,1701.861,1094.799,1608.577,1286.017,1709.205z"/>
							<path style="fill:#FCFDFE;" d="M1420.993,1852.842l-6.406,4.418c-116.18-183.558,58.212-560.228,59.988-564.012l6.775,3.008
								C1479.594,1299.999,1307.022,1672.774,1420.993,1852.842z"/>
							<path style="fill:#FCFDFE;" d="M1011.214,1250.242l-6.042,4.944c-104.466-136.37-370.003-153.645-372.673-153.805
								l0.843-7.682C636.046,1093.859,904.819,1111.353,1011.214,1250.242z"/>
							<path style="fill:#FCFDFE;" d="M909.582,914.433l-7.544,0.668c-6.344-201.883,173.647-414.675,175.471-416.802l5.569,4.877
								C1081.275,505.274,903.334,715.695,909.582,914.433z"/>
						</g>
					</g>
				</g>
			</g>
			<g>
				<g>
					<path style="fill:#FFFFFF;" d="M2650.283,2218.859V555.419l-1495.459-74.787v1821.845c0,38.23-27.703,70.829-65.433,76.997h0
						l1480.535-74.788C2615.136,2301.706,2650.283,2264.167,2650.283,2218.859z"/>
				</g>
				<g>
					<g>
						
							<linearGradient id="SVGID_00000121961550157588147050000018047295248976011182_" gradientUnits="userSpaceOnUse" x1="1700.3427" y1="551.3036" x2="2421.3972" y2="2339.1196">
							<stop  offset="0" style="stop-color:#FF9085"/>
							<stop  offset="1" style="stop-color:#FB6FBB"/>
						</linearGradient>
						<path style="fill:url(#SVGID_00000121961550157588147050000018047295248976011182_);" d="M2264.982,786.178
							c5.276,0.198,9.567,4.552,9.567,9.705v631.228c0,5.153-4.29,9.352-9.567,9.36l-672.567,0.965
							c-5.715,0.008-10.366-4.352-10.366-9.719V770.284c0-5.368,4.651-9.56,10.366-9.345L2264.982,786.178L2264.982,786.178z
							 M2264.982,750.38l-672.567-26.682c-27.676-1.098-50.161,19.091-50.161,45.115v658.939c0,26.023,22.485,47.024,50.161,46.925
							l672.567-2.408c25.493-0.091,46.089-20.316,46.089-45.19V797.234C2311.071,772.359,2290.475,751.391,2264.982,750.38
							L2264.982,750.38z"/>
						<g>
							<g>
								
									<linearGradient id="SVGID_00000061472023863217657850000014947371460912839823_" gradientUnits="userSpaceOnUse" x1="1631.515" y1="1108.8732" x2="2230.6091" y2="1108.8732">
									<stop  offset="0" style="stop-color:#FF9085"/>
									<stop  offset="1" style="stop-color:#FB6FBB"/>
								</linearGradient>
								<path style="fill:url(#SVGID_00000061472023863217657850000014947371460912839823_);" d="M2213.363,1149.327
									l-565.481-11.765c-9.187-0.191-16.518-7.402-16.365-16.11l0.662-37.638c0.154-8.734,7.75-15.627,16.956-15.392
									l566.643,14.463c8.498,0.217,15.129,7.184,14.821,15.558l-1.33,36.088
									C2228.962,1142.881,2221.844,1149.504,2213.363,1149.327z"/>
								
									<linearGradient id="SVGID_00000156553860827676306510000006751147607241716134_" gradientUnits="userSpaceOnUse" x1="1669.7585" y1="1255.2825" x2="2192.3555" y2="1255.2825">
									<stop  offset="0" style="stop-color:#FF9085"/>
									<stop  offset="1" style="stop-color:#FB6FBB"/>
								</linearGradient>
								<path style="fill:url(#SVGID_00000156553860827676306510000006751147607241716134_);" d="M1669.759,1152.035l45.013,184.459
									c2.825,11.581,13.636,19.748,26.21,19.823l373.82,2.212c11.916,0.071,22.555-7.736,25.829-18.941l51.726-177.181
									L1669.759,1152.035z M1805.583,1327.391c-0.169,7.236-6.476,13.057-14.092,13.003l-13.157-0.093
									c-7.637-0.054-13.708-5.978-13.548-13.234l3.129-142.09c0.161-7.327,6.524-13.153,14.202-13.01l13.225,0.246
									c7.655,0.143,13.719,6.184,13.549,13.49L1805.583,1327.391z M1878.699,1327.972c-0.185,7.2-6.444,12.991-13.983,12.938
									l-13.024-0.092c-7.56-0.053-13.555-5.947-13.379-13.167l3.45-141.366c0.178-7.29,6.491-13.087,14.091-12.945l13.091,0.244
									c7.578,0.141,13.566,6.151,13.379,13.42L1878.699,1327.972z M1951.082,1328.547c-0.201,7.163-6.411,12.926-13.875,12.873
									l-12.893-0.091c-7.485-0.053-13.405-5.916-13.213-13.1l3.764-140.649c0.194-7.252,6.458-13.021,13.981-12.88l12.959,0.241
									c7.501,0.14,13.415,6.118,13.212,13.35L1951.082,1328.547z M2022.741,1329.115c-0.217,7.128-6.379,12.861-13.768,12.809
									l-12.765-0.09c-7.41-0.052-13.257-5.886-13.049-13.034l4.072-139.939c0.21-7.216,6.426-12.955,13.873-12.816l12.829,0.239
									c7.426,0.138,13.266,6.086,13.047,13.281L2022.741,1329.115z M2093.689,1329.679c-0.232,7.092-6.347,12.797-13.663,12.746
									l-12.638-0.089c-7.336-0.052-13.111-5.856-12.887-12.968l4.374-139.236c0.225-7.179,6.394-12.89,13.766-12.753l12.701,0.237
									c7.352,0.137,13.119,6.054,12.885,13.213L2093.689,1329.679z"/>
								
									<linearGradient id="SVGID_00000137843401224836122070000009472018021933502604_" gradientUnits="userSpaceOnUse" x1="1704.9583" y1="1034.9084" x2="3080.1462" y2="470.7288">
									<stop  offset="0" style="stop-color:#FF9085"/>
									<stop  offset="1" style="stop-color:#FB6FBB"/>
								</linearGradient>
								<path style="fill:url(#SVGID_00000137843401224836122070000009472018021933502604_);" d="M1925.737,834.83
									c-57.581,3.514-99.557,53.611-93.576,111.884c5.98,58.273,57.621,102.363,115.166,98.49
									c57.348-3.86,98.877-53.929,92.934-111.843C2034.317,875.446,1983.122,831.328,1925.737,834.83z M1986.353,893.904
									l-36.923,95.166c-1.691,4.357-5.633,7.356-10.295,7.829c-0.15,0.015-0.301,0.028-0.452,0.038
									c-4.511,0.297-8.953-1.816-11.692-5.59l-45.988-63.4c-4.31-5.941-3.152-14.079,2.585-18.175
									c5.732-4.093,13.87-2.598,18.175,3.34l31.898,44.009l28.578-73.582c2.565-6.604,10.044-9.633,16.701-6.769
									C1985.596,879.635,1988.914,887.304,1986.353,893.904z"/>
							</g>
						</g>
					</g>
					<polygon style="fill:#D8DEE8;" points="2485.137,1738.208 1347.568,1757.688 1347.568,1667.994 2485.137,1654.308 					"/>
					<polygon style="fill:#D8DEE8;" points="2485.137,1864.469 1347.568,1892.669 1347.568,1802.975 2485.137,1780.569 					"/>
					<polygon style="fill:#D8DEE8;" points="2485.137,1990.729 1347.568,2027.65 1347.568,1937.956 2485.137,1906.83 					"/>
				</g>
				<g>
					<path style="fill:#D8DEE8;" d="M2650.283,891.733c-1.856,0-3.358-1.502-3.358-3.358V558.613l-1488.742-74.452v339.416
						c0,1.857-1.504,3.358-3.358,3.358c-1.855,0-3.358-1.502-3.358-3.358V477.101l3.526,0.177l1498.65,74.947v336.15
						C2653.641,890.231,2652.139,891.733,2650.283,891.733z"/>
				</g>
			</g>
		</g>
		<g>
			<g>
				
					<linearGradient id="SVGID_00000067944567721451774630000009209804986772820899_" gradientUnits="userSpaceOnUse" x1="804.447" y1="2419.2603" x2="1114.0248" y2="2419.2603">
					<stop  offset="0" style="stop-color:#311944"/>
					<stop  offset="1" style="stop-color:#A03976"/>
				</linearGradient>
				<path style="fill:url(#SVGID_00000067944567721451774630000009209804986772820899_);" d="M1106.826,2551.953
					c-3.664,0-6.794-2.785-7.149-6.507c-6.295-66.057-27.833-128.82-60.645-176.729c-29.067-42.443-63.672-67.771-92.585-67.771
					c-0.033,0-0.063,0-0.096,0c-105.311,0.205-127.34,241.99-127.55,244.433c-0.341,3.957-3.807,6.886-7.779,6.547
					c-3.956-0.341-6.887-3.823-6.547-7.778c0.902-10.509,23.45-257.35,141.849-257.582c0.042,0,0.085,0,0.127,0
					c34.162,0,72.223,26.972,104.448,74.025c34.164,49.885,56.573,115.05,63.095,183.489c0.376,3.953-2.522,7.463-6.475,7.841
					C1107.285,2551.943,1107.054,2551.953,1106.826,2551.953z"/>
				
					<linearGradient id="SVGID_00000175320058031938915250000014040153079296867771_" gradientUnits="userSpaceOnUse" x1="594.5302" y1="2593.0918" x2="769.7711" y2="2886.9573">
					<stop  offset="0" style="stop-color:#FF9085"/>
					<stop  offset="1" style="stop-color:#FB6FBB"/>
				</linearGradient>
				<path style="fill:url(#SVGID_00000175320058031938915250000014040153079296867771_);" d="M668.097,3049.566l138.63,70.186
					l83.996-257.756l-138.402-345.559l-39.245,9.623l-59.547,496.285C652.182,3033.578,658.003,3044.456,668.097,3049.566z"/>
				
					<linearGradient id="SVGID_00000147936985883893447880000016429835270206561922_" gradientUnits="userSpaceOnUse" x1="621.6247" y1="2576.9343" x2="796.8656" y2="2870.7998">
					<stop  offset="0" style="stop-color:#FF9085"/>
					<stop  offset="1" style="stop-color:#FB6FBB"/>
				</linearGradient>
				<path style="opacity:0.52;fill:url(#SVGID_00000147936985883893447880000016429835270206561922_);" d="M890.724,2861.996
					l-138.402-345.559l-23.148,5.676c-3.21,46.137-1.799,84.11,0.381,111.757c9.278,117.652,40.091,150.392,25.164,232.468
					c-12.411,68.245-39.516,77.508-37.147,123.423c2.581,50.007,37.459,91.883,78.927,124.813l10.229,5.178L890.724,2861.996z"/>
				
					<linearGradient id="SVGID_00000137125681469895938740000013873440675035717273_" gradientUnits="userSpaceOnUse" x1="899.5934" y1="2711.4739" x2="1392.9635" y2="3091.6118">
					<stop  offset="0" style="stop-color:#FF9085"/>
					<stop  offset="1" style="stop-color:#FB6FBB"/>
				</linearGradient>
				<polygon style="fill:url(#SVGID_00000137125681469895938740000013873440675035717273_);" points="752.322,2516.437 
					1269.22,2516.438 1440.289,3068.702 806.728,3119.752 				"/>
				
					<linearGradient id="SVGID_00000158741339922159256060000015555287862548840841_" gradientUnits="userSpaceOnUse" x1="892.4059" y1="2428.0405" x2="1178.3556" y2="2428.0405">
					<stop  offset="0" style="stop-color:#311944"/>
					<stop  offset="1" style="stop-color:#A03976"/>
				</linearGradient>
				<path style="fill:url(#SVGID_00000158741339922159256060000015555287862548840841_);" d="M912.449,2563.771
					c-3.263,0-6.216-2.236-6.994-5.55c-1.469-6.263-35.43-154.244,12.456-226.868c13.725-20.814,32.9-33.523,56.991-37.772
					c123.787-21.812,200,244.058,203.184,255.386c1.073,3.823-1.154,7.792-4.976,8.866c-3.827,1.078-7.793-1.155-8.867-4.976
					c-0.746-2.647-75.768-264.726-186.843-245.114c-20.328,3.584-35.86,13.897-47.484,31.525
					c-44.512,67.509-10.806,214.196-10.46,215.671c0.907,3.865-1.493,7.734-5.358,8.641
					C913.545,2563.71,912.992,2563.771,912.449,2563.771z"/>
				<g style="opacity:0.3;">
					
						<linearGradient id="SVGID_00000000218112172760781200000006834078968256057785_" gradientUnits="userSpaceOnUse" x1="905.9708" y1="2703.1956" x2="1399.3409" y2="3083.334">
						<stop  offset="0" style="stop-color:#FF9085"/>
						<stop  offset="1" style="stop-color:#FB6FBB"/>
					</linearGradient>
					<path style="fill:url(#SVGID_00000000218112172760781200000006834078968256057785_);" d="M1269.219,2516.437H1012.79
						c-12.647,12.864-21.622,27.69-22.48,44.321c-4.03,78.137,175.6,103.807,192.924,210.899
						c12.497,77.254-64.399,166.391-133.01,206.105c-72.287,41.841-121.267,20.652-170.157,67.104
						c-21.481,20.41-34.562,45.932-42.341,72.388l602.561-48.552L1269.219,2516.437z"/>
				</g>
				
					<linearGradient id="SVGID_00000039837371967367380540000002145968948917250177_" gradientUnits="userSpaceOnUse" x1="892.406" y1="2564.856" x2="932.5927" y2="2564.856">
					<stop  offset="0" style="stop-color:#311944"/>
					<stop  offset="1" style="stop-color:#A03976"/>
				</linearGradient>
				
					<circle style="fill:url(#SVGID_00000039837371967367380540000002145968948917250177_);" cx="912.499" cy="2564.856" r="20.093"/>
				
					<linearGradient id="SVGID_00000152241260526751762050000015102308785466658737_" gradientUnits="userSpaceOnUse" x1="1154.4457" y1="2562.9922" x2="1194.6323" y2="2562.9922">
					<stop  offset="0" style="stop-color:#311944"/>
					<stop  offset="1" style="stop-color:#A03976"/>
				</linearGradient>
				
					<circle style="fill:url(#SVGID_00000152241260526751762050000015102308785466658737_);" cx="1174.539" cy="2562.992" r="20.093"/>
			</g>
		</g>
		<g>
			
				<linearGradient id="SVGID_00000086668330582470845570000011433001412349921208_" gradientUnits="userSpaceOnUse" x1="-540.4513" y1="3415.7341" x2="-619.8159" y2="3154.0452" gradientTransform="matrix(-0.993 0.1177 0.1177 0.993 1497.196 -89.6996)">
				<stop  offset="0" style="stop-color:#444B8C"/>
				<stop  offset="0.9964" style="stop-color:#26264F"/>
			</linearGradient>
			<path style="fill:url(#SVGID_00000086668330582470845570000011433001412349921208_);" d="M2497.771,3103.471
				c9.8,15.633,8.273,22.952,6.588,26.277c-4.941,9.755-20.036,2.61-56.63,10.87c-4.292,0.97-12.468,2.957-23.074,1.602
				c-9.085-1.164-20.032-4.79-19.834-7.211c0.073-0.882,1.612-1.392,2.196-1.582c10.053-3.267,72.358-29.75,72.358-29.75
				L2497.771,3103.471z"/>
			
				<linearGradient id="SVGID_00000055673031178048493660000015017541148659603086_" gradientUnits="userSpaceOnUse" x1="-608.87" y1="3364.7791" x2="-608.87" y2="2944.3503" gradientTransform="matrix(-0.993 0.1177 0.1177 0.993 1497.196 -89.6996)">
				<stop  offset="0" style="stop-color:#FFC444"/>
				<stop  offset="0.9964" style="stop-color:#F36F56"/>
			</linearGradient>
			<path style="fill:url(#SVGID_00000055673031178048493660000015017541148659603086_);" d="M2498.925,3066.732l-1.897,37.436
				c0,0-14.653,12.838-20.229-0.304c-4.012-9.454-6.68-35.785-6.68-35.785L2498.925,3066.732z"/>
			
				<linearGradient id="SVGID_00000028296243699403899040000014545189114985070469_" gradientUnits="userSpaceOnUse" x1="-454.069" y1="3364.7783" x2="-454.069" y2="2944.3438" gradientTransform="matrix(-0.993 0.1177 0.1177 0.993 1497.196 -89.6996)">
				<stop  offset="0" style="stop-color:#FFC444"/>
				<stop  offset="0.9964" style="stop-color:#F36F56"/>
			</linearGradient>
			<polygon style="fill:url(#SVGID_00000028296243699403899040000014545189114985070469_);" points="2314.012,3104.496 
				2333.977,3145.284 2356.174,3139.329 2346.835,3100.605 			"/>
			
				<linearGradient id="SVGID_00000067940417331954452520000004335382977334940300_" gradientUnits="userSpaceOnUse" x1="-424.8358" y1="3380.6714" x2="-504.2014" y2="3118.9788" gradientTransform="matrix(-0.993 0.1177 0.1177 0.993 1497.196 -89.6996)">
				<stop  offset="0" style="stop-color:#444B8C"/>
				<stop  offset="0.9964" style="stop-color:#26264F"/>
			</linearGradient>
			<path style="fill:url(#SVGID_00000067940417331954452520000004335382977334940300_);" d="M2343.448,3167.908
				c9.572-14.106,19.448-13.95,20.486-23.065c0.815-7.162-4.369-15.3-11.178-17.885c-9.57-3.631-19.832,4.677-22.151,6.552
				c-15.75,12.752-9.352,29.45-24.506,38.564c-3.051,1.835-7.966,3.958-12.798,9.536c-2.051,2.37-7.134,8.239-5.434,11.737
				c1.966,4.047,11.996,2.85,21.534,1.714c11.444-1.363,17.166-2.041,22.317-6.058
				C2338.859,3183.436,2336.061,3178.795,2343.448,3167.908z"/>
			
				<linearGradient id="SVGID_00000119079674815264769470000009743411234470331288_" gradientUnits="userSpaceOnUse" x1="-645.2221" y1="2457.5811" x2="-683.8326" y2="3326.3184" gradientTransform="matrix(-0.993 0.1177 0.1177 0.993 1497.196 -89.6996)">
				<stop  offset="0" style="stop-color:#311944"/>
				<stop  offset="1" style="stop-color:#893976"/>
			</linearGradient>
			<path style="fill:url(#SVGID_00000119079674815264769470000009743411234470331288_);" d="M2527.608,2173.04
				c4.78,86.114,0.157,160.534-7.565,221.616c-8.308,65.708-15.34,77.526-15.9,122.533c-1.215,97.937,31.252,109.25,46.106,218.603
				c16.403,120.748-7.855,219.808-17.484,257.627c-8.419,33.061-17.868,59.979-25.099,78.732
				c-10.316,10.616-27.625,8.302-45.852,6.144c-15.723-109.451-32.534-212.288-48.257-321.739
				c-35.012-163.713-70.023-327.419-105.035-491.13C2381.552,2234.628,2454.579,2203.838,2527.608,2173.04z"/>
			
				<linearGradient id="SVGID_00000000201189487350468450000001983562920887319453_" gradientUnits="userSpaceOnUse" x1="-645.2221" y1="2457.5813" x2="-683.8326" y2="3326.3184" gradientTransform="matrix(-0.993 0.1177 0.1177 0.993 1497.196 -89.6996)">
				<stop  offset="0" style="stop-color:#311944"/>
				<stop  offset="1" style="stop-color:#893976"/>
			</linearGradient>
			<path style="opacity:0.3;fill:url(#SVGID_00000000201189487350468450000001983562920887319453_);" d="M2461.815,3078.294
				c-15.723-109.451-32.534-212.288-48.257-321.739c-35.012-163.713-70.023-327.419-105.035-491.13
				c73.028-30.797,146.056-61.587,219.085-92.385c0.316,5.703,0.485,11.213,0.722,16.817
				c-97.734,100.188-112.342,174.348-107.216,223.681c6.215,59.834,41.454,86.829,42.253,174.263
				c0.573,62.516-17.2,75.012-12.544,131.082c5.997,72.2,40.349,110.228,58.9,150.699c17.928,39.115,27.855,95.801,6.41,179.373
				c-3.005,8.695-5.881,16.491-8.467,23.195C2497.351,3082.764,2480.042,3080.456,2461.815,3078.294z"/>
			
				<linearGradient id="SVGID_00000128465316089120366220000013700615421971782307_" gradientUnits="userSpaceOnUse" x1="-56.6224" y1="2827.1523" x2="-764.4907" y2="2794.9761" gradientTransform="matrix(-0.993 0.1177 0.1177 0.993 1497.196 -89.6996)">
				<stop  offset="0" style="stop-color:#311944"/>
				<stop  offset="1" style="stop-color:#893976"/>
			</linearGradient>
			<path style="fill:url(#SVGID_00000128465316089120366220000013700615421971782307_);" d="M2401.566,2266.819
				c-47.468,97.761-72.038,173.647-84.926,220.317c-7.862,28.472-14.674,58.015-13.689,95.935
				c1.208,46.456,13.551,83.689,23.537,107.355c14.19,30.205,27.687,65.687,37.668,106.206
				c32.372,131.404,10.418,245.434-8.668,311.546c-12.931,6.044-25.863,12.095-38.794,18.14
				c-37.22-82.029-84.175-198.878-123.01-344.558c-21.21-79.566-37.55-141.99-44.325-222.445
				c-7.147-84.858-6.203-220.098,49.942-386.241C2266.723,2204.321,2334.144,2235.571,2401.566,2266.819z"/>
			
				<linearGradient id="SVGID_00000098200275523428151020000003617711201633713570_" gradientUnits="userSpaceOnUse" x1="-1104.295" y1="3012.6262" x2="-602.3541" y2="1940.1034" gradientTransform="matrix(-0.993 0.1177 0.1177 0.993 1497.196 -89.6996)">
				<stop  offset="0.0036" style="stop-color:#E38DDD"/>
				<stop  offset="1" style="stop-color:#9571F6"/>
			</linearGradient>
			<path style="fill:url(#SVGID_00000098200275523428151020000003617711201633713570_);" d="M2309.837,1534.746
				c-83.631,21.603-146.962,42.123-172.116,88.947c-26.569,49.458,24.785,80.772,46.488,182.653
				c33.229,155.977-52.53,222.382-13.292,378.958c13.22,52.756,34.836,92.616,49.39,116.158
				c29.269,20.09,75.373,46.991,136.204,62.771c88.521,22.963,129.507,1.951,245.798-1.028
				c190.213-4.877,223.11,47.682,305.843,6.828c83.614-41.29,138.536-138.684,116.937-176.567
				c-12.938-22.686-46.353-5.082-98.429-29.934c-67.115-32.028-60.585-83.88-116.152-123.288
				c-79.813-56.605-146.328,12.754-214.667-36.556c-69.128-49.882-87.966-183.556-67.156-265.787
				c13.593-53.711,9.219-110.533,18.075-165.223c0.738-4.543,1.019-11.717-2.417-19.541c-13.132-29.921-69.98-31.163-112.917-31.701
				C2365.94,1520.614,2316.713,1532.968,2309.837,1534.746z"/>
			
				<linearGradient id="SVGID_00000116927309233556299020000016273070835235220372_" gradientUnits="userSpaceOnUse" x1="3082.8728" y1="2110.6814" x2="3474.9294" y2="2916.8831" gradientTransform="matrix(0.9575 -0.2886 0.2886 0.9575 -1502.8842 536.33)">
				<stop  offset="0" style="stop-color:#AA80F9"/>
				<stop  offset="0.9964" style="stop-color:#6165D7"/>
			</linearGradient>
			<path style="opacity:0.3;fill:url(#SVGID_00000116927309233556299020000016273070835235220372_);" d="M2893.261,2311.072
				c-27.658-15.294-17.568-65.987-58.567-89.055c-38.053-21.41-63.51,12.826-117.962,0.949
				c-69.838-15.236-71.712-81.104-138.717-96.623c-48.182-11.158-59.858,19.974-127.449,26.88
				c-67.475,6.897-158.382-13.651-220.422-80.642c-26.362-28.465-42.373-59.837-52.11-89.26
				c-13.233,59.879-28.179,117.944-7.119,201.984c13.22,52.756,34.836,92.616,49.39,116.158
				c29.269,20.09,75.373,46.991,136.204,62.77c88.52,22.963,129.507,1.952,245.798-1.027c190.213-4.877,223.11,47.682,305.843,6.828
				c53.438-26.388,95.036-75.656,112.549-117.695C2950.387,2312.967,2913.334,2322.172,2893.261,2311.072z"/>
			
				<linearGradient id="SVGID_00000037656033947184727840000001878251156682771357_" gradientUnits="userSpaceOnUse" x1="-551.1793" y1="1621.2401" x2="-641.726" y2="1767.7126" gradientTransform="matrix(-0.993 0.1177 0.1177 0.993 1497.196 -89.6996)">
				<stop  offset="0" style="stop-color:#FFC444"/>
				<stop  offset="0.9964" style="stop-color:#F36F56"/>
			</linearGradient>
			<path style="fill:url(#SVGID_00000037656033947184727840000001878251156682771357_);" d="M2248.663,1391.982
				c0,0-19.741,45.827-18.663,76.745c1.078,30.917,35.647,25.797,35.647,25.797l0.305,19.535
				c0.261,16.677-9.313,31.944-24.437,38.975l-13.304,6.183c0,0,91.1,11.745,137.118-26.842l-14.2-0.21
				c-20.108-0.298-37.218-14.728-40.905-34.498l-1.538-8.244C2308.686,1489.424,2316.256,1392.142,2248.663,1391.982z"/>
			<g>
				
					<linearGradient id="SVGID_00000169553116211318788770000006061507979517235620_" gradientUnits="userSpaceOnUse" x1="-213.9469" y1="1848.0154" x2="-396.4597" y2="2143.2566" gradientTransform="matrix(-0.993 0.1177 0.1177 0.993 1497.196 -89.6996)">
					<stop  offset="0" style="stop-color:#444B8C"/>
					<stop  offset="0.9964" style="stop-color:#26264F"/>
				</linearGradient>
				<path style="fill:url(#SVGID_00000169553116211318788770000006061507979517235620_);" d="M2157.382,1892.218l-136.207-234.949
					c-1.682-2.901-5.062-4.361-8.327-3.599l-190.568,44.535c-5.088,1.187-7.498,7.029-4.728,11.459l158.055,252.731
					c1.903,3.043,5.673,4.346,9.049,3.125l167.49-60.488L2157.382,1892.218z"/>
				
					<linearGradient id="SVGID_00000078017781111408939560000002366185100880511400_" gradientUnits="userSpaceOnUse" x1="-194.4077" y1="1836.9189" x2="-352.0593" y2="2132.9172" gradientTransform="matrix(-0.9946 0.104 0.104 0.9946 1561.4523 -80.9972)">
					<stop  offset="0" style="stop-color:#FFC444"/>
					<stop  offset="0.9964" style="stop-color:#F36F56"/>
				</linearGradient>
				<path style="fill:url(#SVGID_00000078017781111408939560000002366185100880511400_);" d="M2123.873,1865.551l-110.285-190.238
					c-1.362-2.349-4.098-3.531-6.742-2.914l-154.301,36.059c-4.121,0.962-6.072,5.693-3.828,9.279l127.976,204.635
					c1.54,2.464,4.593,3.518,7.326,2.53l135.616-48.975L2123.873,1865.551z"/>
				
					<linearGradient id="SVGID_00000029760874510880174710000001070425884031001999_" gradientUnits="userSpaceOnUse" x1="-232.5877" y1="1829.0765" x2="-189.1504" y2="1738.9843" gradientTransform="matrix(-0.993 0.1177 0.1177 0.993 1497.196 -89.6996)">
					<stop  offset="0" style="stop-color:#AA80F9"/>
					<stop  offset="0.9964" style="stop-color:#6165D7"/>
				</linearGradient>
				<path style="fill:url(#SVGID_00000029760874510880174710000001070425884031001999_);" d="M1981.04,1677.497l-8.757-15.259
					c-1.218-2.12-3.673-3.2-6.058-2.664l-79.372,17.85c-3.685,0.83-5.497,5.005-3.585,8.262l9.738,16.591
					c1.247,2.126,3.741,3.18,6.134,2.595l78.39-19.184C1981.135,1684.806,1982.888,1680.715,1981.04,1677.497z"/>
				<path style="fill:#FFFFFF;" d="M1877.081,1742.917c0.125-0.014,0.241-0.041,0.365-0.069l139.73-32.975
					c1.73-0.407,2.803-2.142,2.397-3.865c-0.416-1.735-2.203-2.776-3.872-2.39l-139.73,32.976c-1.73,0.407-2.803,2.142-2.396,3.865
					C1873.956,1742.073,1875.484,1743.107,1877.081,1742.917z"/>
				<path style="fill:#FFFFFF;" d="M1885.843,1756.459c0.131-0.016,0.267-0.045,0.396-0.072l138.874-34.279
					c1.729-0.42,2.78-2.166,2.354-3.898c-0.42-1.723-2.145-2.771-3.892-2.349l-138.872,34.278c-1.729,0.421-2.781,2.165-2.354,3.898
					C1882.738,1755.624,1884.259,1756.646,1885.843,1756.459z"/>
				<path style="fill:#FFFFFF;" d="M1959.098,1771.531c0.162-0.019,0.323-0.051,0.482-0.095l75.503-20.832
					c1.718-0.47,2.722-2.246,2.246-3.961c-0.468-1.704-2.272-2.718-3.955-2.241l-75.505,20.833c-1.716,0.47-2.721,2.247-2.245,3.963
					C1956.049,1770.74,1957.55,1771.714,1959.098,1771.531z"/>
			</g>
			
				<linearGradient id="SVGID_00000085212136947004151320000016132444287562766478_" gradientUnits="userSpaceOnUse" x1="-175.3347" y1="1964.6929" x2="-219.1279" y2="2035.5348" gradientTransform="matrix(-0.993 0.1177 0.1177 0.993 1497.196 -89.6996)">
				<stop  offset="0" style="stop-color:#FFC444"/>
				<stop  offset="0.9964" style="stop-color:#F36F56"/>
			</linearGradient>
			<path style="fill:url(#SVGID_00000085212136947004151320000016132444287562766478_);" d="M1936.925,1900.541
				c0,0-33.706-18.114-38.954-32.819c-5.247-14.704-7.294-43.191-7.294-43.191l22.524,38.077c0,0,8.598-3.467,11.039-17.046
				c2.441-13.579,10.157-2.181,8.592,8.048C1931.266,1863.838,1936.925,1900.541,1936.925,1900.541z"/>
			
				<linearGradient id="SVGID_00000092426194196045282790000004427286201874002056_" gradientUnits="userSpaceOnUse" x1="-879.0208" y1="3118.0337" x2="-377.088" y2="2045.5281" gradientTransform="matrix(-0.993 0.1177 0.1177 0.993 1497.196 -89.6996)">
				<stop  offset="0.0036" style="stop-color:#E38DDD"/>
				<stop  offset="1" style="stop-color:#9571F6"/>
			</linearGradient>
			<path style="fill:url(#SVGID_00000092426194196045282790000004427286201874002056_);" d="M2151.218,1607.243
				c-15.563,11.862-38.767,32.254-57.922,63.246c-54.494,88.172-20.841,172.521-69.762,208.712
				c-13.99,10.353-39.414,20.226-88.409,8.454l-17.104,11.526c0,0-10.359,114.821,126.698,104.746
				c137.058-10.068,187.374-187.025,187.374-187.025L2151.218,1607.243z"/>
			
				<linearGradient id="SVGID_00000048465894413246245930000005935651265925502857_" gradientUnits="userSpaceOnUse" x1="-1054.0477" y1="2234.7737" x2="-687.981" y2="1452.58" gradientTransform="matrix(-0.993 0.1177 0.1177 0.993 1497.196 -89.6996)">
				<stop  offset="0" style="stop-color:#444B8C"/>
				<stop  offset="0.9964" style="stop-color:#26264F"/>
			</linearGradient>
			<path style="fill:url(#SVGID_00000048465894413246245930000005935651265925502857_);" d="M2266.267,1434.465
				c4.594-0.766,7.93-6.951,11.242-5.47c3.476,1.549,3.815,10.134,1.425,16.377c-1.962,5.118-5.597,8.22-7.641,9.696
				c3.983,4.647,9.17,11.955,11.898,21.858c6.037,21.9-4.308,40.774-8.355,51.652c-18.258,49.04,22.417,120.808,63.396,155.355
				c33.302,28.085,46.635,14.577,67.074,38.074c39.786,45.73-5.12,103.346,18.8,167.354
				c36.373,97.327,196.194,113.93,202.813,114.539c2.608,0.241,4.357,0.381,7.067,0.585c71.523,5.364,179.927,13.491,250.475-50.695
				c52.783-48.02,72.384-125.615,62.606-191.716c-2.571-17.387-13.367-83.305-71.925-132.98
				c-9.294-7.883-64.322-54.454-133.043-49.377c-36.398,2.687-42.671,16.111-71.143,10.493
				c-38.981-7.693-65.308-40.371-81.641-60.639c-30.042-37.287-19.864-46.624-40.731-64.458
				c-40.89-34.938-82.681-1.376-125.77-31.63c-42.473-29.82-22.229-76.731-62.954-102.215
				c-42.011-26.281-116.83-9.687-130.044,26.853C2218.459,1389.52,2252.18,1436.812,2266.267,1434.465z"/>
		</g>
	</g>
</g>
</svg>
